<svg width="75" height="96" viewBox="0 0 75 96" fill="none" xmlns="http://www.w3.org/2000/svg">
<g filter="url(#filter0_d_76_352)">
<path d="M41.8968 56.0841V49.7445C41.8968 47.2448 39.8631 45.2112 37.3635 45.2112C34.8638 45.2112 32.8302 47.2448 32.8302 49.7445V55.4684C32.8302 62.3661 30.289 68.9886 25.6745 74.1156L19.3123 81.1848C18.7778 81.7788 18.826 82.6935 19.4199 83.2283C20.0137 83.7628 20.9285 83.7146 21.4632 83.1206L27.8254 76.0514C32.9187 70.3919 35.7238 63.0822 35.7238 55.4684V49.7445C35.7238 48.8403 36.4593 48.1048 37.3635 48.1048C38.2676 48.1048 39.0032 48.8403 39.0032 49.7445V56.0841C39.0032 64.5726 35.8586 72.7062 30.1486 78.9872L23.9469 85.8092C23.4094 86.4002 23.453 87.3156 24.0443 87.853C24.3215 88.1051 24.6697 88.2292 25.0169 88.2292C25.4104 88.2292 25.8024 88.0696 26.0879 87.7556L32.2895 80.9337C38.4848 74.1189 41.8968 65.2938 41.8968 56.0841Z" fill="white"/>
<path d="M48.0698 49.7441C48.0698 43.8406 43.267 39.0378 37.3635 39.0378C31.46 39.0378 26.6573 43.8406 26.6573 49.7441V55.468C26.6573 60.8383 24.6788 65.9941 21.0863 69.9857L16.5633 75.0115C16.0287 75.6054 16.077 76.5202 16.6709 77.0549C17.2649 77.5895 18.1794 77.5409 18.7142 76.9473L23.2372 71.9215C27.3087 67.3977 29.551 61.5544 29.551 55.468V49.7441C29.551 45.4361 33.0558 41.9314 37.3637 41.9314C41.6717 41.9314 45.1764 45.4361 45.1764 49.7441V56.0838C45.1764 66.1108 41.4618 75.7194 34.7165 83.1392L29.4839 88.8953C28.9463 89.4864 28.9899 90.4017 29.5811 90.9391C29.8583 91.1913 30.2065 91.3153 30.5538 91.3153C30.9473 91.3153 31.3393 91.1558 31.6248 90.8417L36.8575 85.0856C44.0879 77.1321 48.0698 66.8325 48.0698 56.0838V49.7441Z" fill="white"/>
<path d="M54.2429 49.7438C54.2429 40.4364 46.6709 32.8645 37.3636 32.8645C28.0563 32.8645 20.4844 40.4364 20.4844 49.7438V55.4677C20.4844 59.3103 19.0686 62.9997 16.498 65.8558L12.4253 70.381C11.8908 70.975 11.939 71.8897 12.533 72.4245C13.1267 72.959 14.0417 72.9104 14.5762 72.3168L18.6489 67.7916C21.6985 64.4033 23.378 60.0264 23.378 55.4677V49.7438C23.378 42.032 29.6518 35.7581 37.3636 35.7581C45.0754 35.7581 51.3493 42.032 51.3493 49.7438V56.0834C51.3493 67.6497 47.0645 78.7329 39.284 87.2911L37.8359 88.8842C37.2984 89.4754 37.342 90.3906 37.9333 90.928C38.2105 91.1799 38.5589 91.3042 38.9059 91.3042C39.2994 91.3042 39.6914 91.1446 39.9769 90.8306L41.4249 89.2376C49.6905 80.1453 54.2427 68.3711 54.2427 56.0834V49.7438H54.2429Z" fill="white"/>
<path d="M14.3113 49.7436C14.3113 50.5428 14.9591 51.1904 15.7581 51.1904C16.5571 51.1904 17.2049 50.5428 17.2049 49.7436C17.2049 44.8717 18.9736 40.1656 22.1855 36.4919C25.3675 32.8524 29.7347 30.4723 34.4825 29.7902C35.2734 29.6765 35.8224 28.9431 35.7088 28.1524C35.5951 27.3615 34.8611 26.8132 34.071 26.9261C28.6388 27.7066 23.6441 30.4273 20.007 34.5875C16.3341 38.7885 14.3113 44.1711 14.3113 49.7436Z" fill="white"/>
<path d="M17.205 55.4688C17.205 54.6696 16.5573 54.022 15.7583 54.022C14.9592 54.022 14.3115 54.6696 14.3115 55.4688C14.3115 57.784 13.4586 60.0065 11.91 61.7272L8.2874 65.7526C7.75286 66.3463 7.80108 67.2611 8.39504 67.7958C8.67167 68.0447 9.01755 68.1672 9.36246 68.1672C9.75831 68.1672 10.1528 68.0055 10.4383 67.6882L14.0609 63.663C16.0883 61.4101 17.205 58.5001 17.205 55.4688Z" fill="white"/>
<path d="M57.576 68.3836C56.8026 68.1822 56.0125 68.6442 55.8099 69.417C55.2758 71.4577 54.6114 73.4865 53.8346 75.4468C53.5402 76.1897 53.9038 77.0306 54.6467 77.3248C54.8217 77.394 55.0018 77.4268 55.1793 77.4268C55.7551 77.4268 56.2997 77.0806 56.5248 76.5126C57.3445 74.4437 58.0457 72.3031 58.6094 70.1495C58.8115 69.3767 58.3488 68.586 57.576 68.3836Z" fill="white"/>
<path d="M52.7601 32.6017C52.1657 32.0672 51.251 32.1162 50.7168 32.7103C50.1827 33.3045 50.2313 34.2192 50.8254 34.7534C55.0811 38.5791 57.5218 44.0432 57.5218 49.7449V56.0845C57.5218 58.4907 57.3559 60.9153 57.0285 63.2913C56.9195 64.083 57.4728 64.8129 58.2643 64.9219C58.3312 64.9312 58.3977 64.9356 58.4635 64.9356C59.175 64.9356 59.7952 64.4105 59.8949 63.686C60.2402 61.1796 60.4153 58.622 60.4153 56.0843V49.7449C60.4155 43.2237 57.6251 36.9753 52.7601 32.6017Z" fill="white"/>
<path d="M45.9963 31.5288C46.1971 31.6245 46.4088 31.6696 46.6173 31.6696C47.158 31.6696 47.6767 31.365 47.9246 30.8444C48.2682 30.1231 47.9617 29.2597 47.2404 28.9163C45.1558 27.9238 42.9403 27.2542 40.6553 26.9261C39.8633 26.8132 39.1312 27.3617 39.0176 28.1524C38.904 28.9431 39.453 29.6765 40.2439 29.7902C42.2401 30.077 44.1753 30.6619 45.9963 31.5288Z" fill="white"/>
<path d="M37.3632 20.5193C36.8219 20.5193 36.2744 20.5343 35.7356 20.564C34.9378 20.608 34.3267 21.2905 34.3706 22.0882C34.4148 22.886 35.0965 23.5005 35.895 23.453C36.3809 23.4262 36.8748 23.4127 37.363 23.4127C51.8822 23.4127 63.6946 35.2249 63.6946 49.7443V56.084C63.6946 56.8832 64.3424 57.5308 65.1414 57.5308C65.9405 57.5308 66.5882 56.8832 66.5882 56.084V49.7445C66.5884 33.6297 53.478 20.5193 37.3632 20.5193Z" fill="white"/>
<path d="M21.5444 28.3695C21.8293 28.3695 22.1173 28.2854 22.369 28.1104C24.7761 26.4366 27.4197 25.1869 30.2267 24.3954C30.9958 24.1786 31.4435 23.3792 31.2267 22.6103C31.0099 21.8414 30.2103 21.3942 29.4415 21.6103C26.3242 22.4892 23.3889 23.8767 20.7172 25.7344C20.0611 26.1906 19.8991 27.0923 20.3553 27.7481C20.6364 28.1529 21.0866 28.3695 21.5444 28.3695Z" fill="white"/>
<path d="M11.0315 55.4685V49.7446C11.0315 43.0141 13.5804 36.6043 18.2086 31.6954C18.7566 31.114 18.7298 30.1984 18.1484 29.6502C17.567 29.102 16.6512 29.1292 16.1032 29.7104C10.9667 35.1582 8.13791 42.2734 8.13791 49.7446V55.4685C8.13791 56.2561 7.84778 57.0121 7.32115 57.5972L5.53715 59.5793C5.00261 60.1733 5.05084 61.088 5.6448 61.6226C5.92123 61.8716 6.2673 61.9941 6.61222 61.9941C7.00806 61.9941 7.40236 61.8327 7.68805 61.5153L9.47205 59.5332C10.4777 58.4155 11.0315 56.972 11.0315 55.4685Z" fill="white"/>
<path d="M70.924 38.4789C69.3371 33.7631 66.8153 29.5028 63.4284 25.8162C62.8877 25.2278 61.9726 25.1888 61.3842 25.7296C60.7958 26.2703 60.7571 27.1854 61.2976 27.774C64.4086 31.1602 66.7248 35.0724 68.1816 39.4016C68.3849 40.0059 68.9486 40.3873 69.5526 40.3873C69.7056 40.3873 69.8613 40.3628 70.0142 40.3113C70.7714 40.0565 71.1788 39.236 70.924 38.4789Z" fill="white"/>
<path d="M48.7969 16.2409C48.0413 15.9822 47.2183 16.3852 46.9597 17.1414C46.701 17.8974 47.1041 18.72 47.8601 18.9785C51.0504 20.0701 54.0457 21.6516 56.7627 23.6794C57.0226 23.8732 57.326 23.9666 57.627 23.9666C58.0679 23.9666 58.5035 23.7658 58.7877 23.385C59.2657 22.7447 59.1337 21.8381 58.4935 21.3603C55.5349 19.1526 52.2725 17.43 48.7969 16.2409Z" fill="white"/>
<path d="M14.8833 26.2888C20.9693 20.4536 28.9529 17.24 37.3634 17.24C38.9252 17.24 40.4956 17.3525 42.031 17.5739C42.8225 17.6893 43.5555 17.1395 43.6697 16.3486C43.7839 15.5577 43.2355 14.8243 42.4446 14.7101C40.7725 14.4689 39.0629 14.3464 37.3634 14.3464C28.2029 14.3464 19.5081 17.8459 12.8808 24.2003C6.27416 30.5349 2.41045 39.0357 2.00149 48.1368C1.96561 48.935 2.58368 49.6113 3.38173 49.647C3.40391 49.6482 3.4259 49.6486 3.44789 49.6486C4.21701 49.6486 4.85726 49.0429 4.89218 48.2668C5.26738 39.9117 8.81569 32.1065 14.8833 26.2888Z" fill="white"/>
<path d="M37.3636 8.17334C34.1282 8.17334 30.9042 8.54835 27.7812 9.28795C27.0036 9.47198 26.5227 10.2517 26.7067 11.0291C26.8909 11.8065 27.6707 12.2876 28.4481 12.1034C31.3529 11.4159 34.3523 11.0669 37.3636 11.0669C47.9726 11.0669 57.8757 15.2937 65.2481 22.9682C65.5323 23.264 65.9115 23.4129 66.2918 23.4129C66.6523 23.4129 67.0134 23.279 67.2939 23.0095C67.8701 22.4559 67.8886 21.54 67.335 20.964C63.4937 16.9652 58.9814 13.8195 53.9238 11.6148C48.6852 9.33116 43.1135 8.17334 37.3636 8.17334Z" fill="white"/>
<path d="M4.86493 26.1918C5.1296 26.399 5.44384 26.4995 5.75596 26.4995C6.18556 26.4995 6.61073 26.3091 6.89603 25.9447C11.0194 20.678 16.4478 16.5469 22.5941 13.9977C23.3322 13.6915 23.6825 12.8451 23.3764 12.107C23.0702 11.369 22.2234 11.0183 21.4857 11.3248C14.8804 14.0642 9.04751 18.5028 4.61782 24.1605C4.12513 24.79 4.23586 25.6994 4.86493 26.1918Z" fill="white"/>
<path d="M17.3026 9.47028C17.5136 9.47028 17.7279 9.42398 17.9305 9.32598C24.0221 6.38475 30.5602 4.89359 37.3634 4.89359C40.9087 4.89359 44.4396 5.31065 47.8577 6.1332C48.6342 6.31955 49.4158 5.84191 49.6027 5.06508C49.7897 4.28825 49.3114 3.50679 48.5344 3.31986C44.8951 2.44407 41.1365 2 37.3634 2C30.121 2 23.1596 3.588 16.6726 6.72021C15.953 7.06763 15.6513 7.93262 15.9987 8.65216C16.2482 9.16896 16.7648 9.47028 17.3026 9.47028Z" fill="white"/>
<path d="M53.9049 8.05466C55.3965 8.64861 56.8728 9.3315 58.2928 10.084C58.5086 10.1986 58.7405 10.2528 58.9689 10.2528C59.4874 10.2528 59.9888 9.9733 60.2485 9.48312C60.6225 8.77709 60.3536 7.90149 59.6476 7.52725C58.1358 6.72611 56.5638 5.99905 54.9754 5.36651C54.2329 5.07079 53.3916 5.43307 53.0959 6.17517C52.8004 6.91748 53.1626 7.75912 53.9049 8.05466Z" fill="white"/>
</g>
<defs>
<filter id="filter0_d_76_352" x="0.3" y="0.3" width="74.4" height="94.7152" filterUnits="userSpaceOnUse" color-interpolation-filters="sRGB">
<feFlood flood-opacity="0" result="BackgroundImageFix"/>
<feColorMatrix in="SourceAlpha" type="matrix" values="0 0 0 0 0 0 0 0 0 0 0 0 0 0 0 0 0 0 127 0" result="hardAlpha"/>
<feOffset dx="1" dy="1"/>
<feGaussianBlur stdDeviation="1.35"/>
<feComposite in2="hardAlpha" operator="out"/>
<feColorMatrix type="matrix" values="0 0 0 0 0 0 0 0 0 0 0 0 0 0 0 0 0 0 0.65 0"/>
<feBlend mode="normal" in2="BackgroundImageFix" result="effect1_dropShadow_76_352"/>
<feBlend mode="normal" in="SourceGraphic" in2="effect1_dropShadow_76_352" result="shape"/>
</filter>
</defs>
</svg>
